<svg width="31" height="31" viewBox="0 0 31 31" fill="none" xmlns="http://www.w3.org/2000/svg">
<path d="M24.4078 14.0895C24.6016 14.0895 24.7876 14.1654 24.9255 14.2972C24.993 14.3616 25.0468 14.4391 25.0836 14.5248C25.1203 14.6106 25.1393 14.7029 25.1394 14.7963V16.9089H30.2684C30.6714 16.9089 31 17.2251 31 17.6142V26.0678C30.9963 26.2583 30.9172 26.4395 30.7801 26.5717C30.6429 26.704 30.4589 26.7764 30.2684 26.773H25.1394V30.2962C25.1376 30.3904 25.1173 30.4834 25.0795 30.5698C25.0418 30.6561 24.9874 30.7342 24.9194 30.7996C24.8515 30.8649 24.7713 30.9162 24.6836 30.9506C24.5958 30.985 24.5021 31.0017 24.4078 30.9999H22.94C22.7473 31.0005 22.5618 30.9266 22.4223 30.7937C22.355 30.7294 22.3014 30.6523 22.2646 30.5668C22.2278 30.4813 22.2087 30.3892 22.2084 30.2962V26.773H17.081C16.8883 26.7737 16.7028 26.6998 16.5633 26.5669C16.4955 26.5026 16.4415 26.4252 16.4045 26.3394C16.3674 26.2536 16.3482 26.1612 16.3479 26.0678V17.6142C16.3479 17.4282 16.4253 17.2468 16.5633 17.1151C16.7028 16.9821 16.8883 16.9083 17.081 16.9089H22.2084V14.7963C22.2084 14.6087 22.2859 14.4289 22.4223 14.2972C22.5618 14.1643 22.7473 14.0904 22.94 14.091H24.4063L24.4078 14.0895ZM3.8967 19.7283C4.7058 19.7283 5.36145 20.3592 5.36145 21.1388V22.5462C5.36145 24.0218 6.54255 25.2478 8.0724 25.3579L8.2925 25.3656H11.222C12.0187 25.3827 12.6542 26.0089 12.6542 26.7746C12.6542 27.5403 12.0187 28.1665 11.222 28.1835H8.2925C5.0561 28.1835 2.4335 25.6601 2.4335 22.5462V21.1388C2.4335 20.3592 3.0876 19.7283 3.8967 19.7283ZM22.2099 19.7283H19.2805V23.9567H22.2099V19.7283ZM28.0689 19.7283H25.1394V23.9567H28.0689V19.7283ZM8.5312 6.95874e-05C8.83035 6.95874e-05 9.10005 0.173668 9.2132 0.443367H9.207L15.0675 14.5328C15.159 14.7498 15.1295 14.9978 14.9947 15.19C14.9257 15.2865 14.8344 15.3651 14.7287 15.419C14.623 15.473 14.5058 15.5007 14.3871 15.5H12.8061C12.6619 15.501 12.5205 15.4596 12.3998 15.3807C12.279 15.3019 12.1842 15.1891 12.1272 15.0567L10.554 11.2731H4.56165L2.98995 15.0567C2.93283 15.1894 2.83777 15.3023 2.71671 15.3811C2.59565 15.46 2.45398 15.5013 2.3095 15.5H0.73315C0.614447 15.5007 0.497293 15.473 0.391554 15.419C0.285815 15.3651 0.194586 15.2865 0.12555 15.19C0.0586716 15.0956 0.016896 14.9858 0.00415205 14.8708C-0.00859193 14.7558 0.00811446 14.6395 0.0527005 14.5328L5.9117 0.443367C5.96902 0.310157 6.06456 0.196938 6.18623 0.11803C6.3079 0.0391228 6.45024 -0.00192802 6.59525 6.95874e-05H8.5312ZM22.94 2.81795C24.4946 2.81795 25.9857 3.4116 27.0847 4.46869C27.6248 4.98314 28.0552 5.60152 28.35 6.28662C28.6449 6.97173 28.7982 7.7094 28.8005 8.45526V9.86265C28.7835 10.6283 28.1325 11.2406 27.3358 11.2406C26.5391 11.2406 25.8896 10.6283 25.871 9.86265V8.45526C25.871 7.70662 25.5626 6.99052 25.0123 6.46198C24.454 5.92954 23.7115 5.63353 22.94 5.63583H20.0105C19.2153 5.61878 18.5783 4.99259 18.5783 4.22689C18.5783 3.4612 19.2138 2.835 20.0105 2.81795H22.94ZM7.5578 4.06414L5.735 8.45371H9.38525L7.55935 4.06414H7.5578Z" fill="#D1D7DD"/>
</svg>
