<svg width="35" height="35" viewBox="0 0 35 35" fill="none" xmlns="http://www.w3.org/2000/svg">
<path d="M29.6363 0C31.0586 0.00084635 32.4224 0.566224 33.4281 1.57193C34.4338 2.57764 34.9992 3.94144 35 5.36373V29.6363C34.9992 31.0591 34.4333 32.4234 33.4269 33.4292C32.4205 34.435 31.0559 35 29.6331 35H5.36692C3.94353 35 2.57843 34.4346 1.57194 33.4281C0.565442 32.4216 0 31.0565 0 29.6331L0 5.36692C-2.52063e-07 3.94408 0.565003 2.57947 1.57081 1.57306C2.57661 0.566663 3.94089 0.000846931 5.36373 0L29.6363 0ZM8.48804 10.2227H4.7919V25.2597H8.48804V19.3018H12.4078V25.2597H16.104V10.2227H12.4078V16.0145H8.48804V10.2227ZM24.7166 10.2227H19.1516V25.2597H24.7166C26.2819 25.2597 27.7483 24.822 28.7737 23.7806C30.5371 22.0331 30.3423 20.1004 30.3423 17.7492C30.3423 15.382 30.5371 13.4493 28.7737 11.7018C27.7483 10.6604 26.2819 10.2227 24.7166 10.2227ZM24.4706 13.5131C25.3907 13.5131 25.905 13.8582 26.2372 14.3565C26.5375 14.7782 26.6429 15.1999 26.6429 17.7492C26.6429 20.2985 26.5375 20.7042 26.2372 21.1291C25.905 21.6242 25.3907 21.9724 24.4706 21.9724H22.8414V13.5099H24.4706V13.5131Z" fill="#D1D7DD"/>
</svg>
