<svg width="38" height="38" viewBox="0 0 38 38" fill="none" xmlns="http://www.w3.org/2000/svg">
<path d="M18.7803 0C19.2783 0 19.7562 0.197681 20.1084 0.549805C20.4606 0.902006 20.6582 1.37984 20.6582 1.87793V3.86914C23.3323 4.20374 25.8665 5.25456 27.9922 6.91113L29.4014 5.50293C29.7571 5.16778 30.2291 4.984 30.7178 4.99121C31.2066 4.99849 31.6738 5.19629 32.0195 5.54199C32.365 5.88763 32.562 6.35412 32.5693 6.84277C32.5766 7.33159 32.3938 7.80432 32.0586 8.16016L30.6494 9.56836C32.306 11.6941 33.3578 14.2282 33.6924 16.9023H35.6826C36.1806 16.9023 36.6586 17.1001 37.0107 17.4521C37.3629 17.8043 37.5605 18.2822 37.5605 18.7803C37.5605 19.2784 37.3629 19.7562 37.0107 20.1084C36.6586 20.4605 36.1807 20.6582 35.6826 20.6582H33.6924C33.3562 23.3532 32.3025 25.8234 30.7344 27.8799L32.1807 29.3164C32.9185 30.0451 32.9278 31.2356 32.1992 31.9736C31.848 32.3271 31.3704 32.5266 30.8721 32.5283C30.374 32.53 29.8956 32.3341 29.542 31.9834L28.1055 30.5654C25.9568 32.2705 23.38 33.3522 20.6582 33.6924V35.6924C20.6582 36.1904 20.4606 36.6683 20.1084 37.0205C19.7562 37.3726 19.2783 37.5703 18.7803 37.5703C18.2823 37.5702 17.8043 37.3727 17.4521 37.0205C17.1 36.6683 16.9024 36.1904 16.9023 35.6924V33.6924C14.2282 33.3578 11.694 32.306 9.56836 30.6494L8.16016 32.0586C7.80433 32.3937 7.33154 32.5766 6.84277 32.5693C6.35416 32.562 5.88761 32.365 5.54199 32.0195C5.19629 31.6738 4.99849 31.2066 4.99121 30.7178C4.98397 30.229 5.16771 29.7562 5.50293 29.4004L6.91113 27.9922C5.25455 25.8665 4.20374 23.3323 3.86914 20.6582H1.87793C1.37988 20.6582 0.901979 20.4606 0.549805 20.1084C0.197681 19.7562 0 19.2783 0 18.7803C3.49862e-05 18.2822 0.197633 17.8043 0.549805 17.4521C0.901978 17.1 1.37989 16.9024 1.87793 16.9023H3.86914C4.20086 14.241 5.24139 11.7176 6.88281 9.59668L5.49316 8.22559C5.13992 7.87444 4.94035 7.39748 4.93848 6.89941C4.93672 6.40111 5.13342 5.92211 5.48438 5.56836C5.65662 5.39298 5.86158 5.25318 6.08789 5.15723C6.31433 5.06127 6.55778 5.01058 6.80371 5.00879C7.04958 5.00705 7.29374 5.05384 7.52148 5.14648C7.74937 5.23926 7.95698 5.3767 8.13184 5.5498L9.53125 6.93945C11.6651 5.26761 14.2127 4.20662 16.9023 3.86914V1.87793C16.9023 1.3799 17.1 0.901994 17.4521 0.549805C17.8043 0.197659 18.2823 6.41254e-05 18.7803 0ZM18.7803 11.2686C17.4734 11.2642 16.1879 11.6025 15.0527 12.25C13.9176 12.8975 12.972 13.8319 12.3105 14.959C11.9512 15.5655 11.6791 16.2197 11.5029 16.9023C11.4642 17.0526 11.4306 17.2048 11.4014 17.3584C11.3721 17.5121 11.3478 17.6674 11.3281 17.8242C11.2888 18.1375 11.2686 18.4565 11.2686 18.7803C11.2686 19.4281 11.348 20.0583 11.5029 20.6582C11.6804 21.3474 11.9575 21.9947 12.3105 22.5928C12.9406 23.6612 13.8246 24.5577 14.8838 25.2031C14.91 25.219 14.9416 25.2341 14.9678 25.25C15.3451 25.4744 15.7415 25.665 16.1514 25.8193C16.3153 25.8811 16.4814 25.9372 16.6494 25.9873C16.7332 26.0123 16.8176 26.0356 16.9023 26.0576C17.2029 26.1351 17.5108 26.1941 17.8242 26.2334C18.1374 26.2727 18.4565 26.293 18.7803 26.293C19.1042 26.293 19.4239 26.2727 19.7373 26.2334C19.9727 26.2039 20.2046 26.1634 20.4326 26.1123C20.5084 26.0953 20.5843 26.0769 20.6592 26.0576C21.9581 25.7199 23.1437 25.0418 24.0928 24.0928C25.042 23.1436 25.7209 21.9574 26.0586 20.6582C26.136 20.3579 26.1941 20.0505 26.2334 19.7373C26.2727 19.4238 26.293 19.1043 26.293 18.7803C26.293 18.4563 26.2727 18.1368 26.2334 17.8232C26.1941 17.5098 26.136 17.2023 26.0586 16.9023C26.0373 16.8211 26.0141 16.7404 25.9902 16.6602C25.6322 15.4569 24.9794 14.3603 24.0898 13.4707C24.0305 13.4114 23.9703 13.3531 23.9092 13.2959C23.787 13.1816 23.6613 13.0714 23.5322 12.9658C23.3386 12.8073 23.1375 12.6586 22.9297 12.5205C22.6525 12.3363 22.3635 12.1706 22.0645 12.0244C21.6163 11.8054 21.1457 11.6303 20.6592 11.5029C20.0455 11.346 19.4137 11.2675 18.7803 11.2686Z" fill="#D1D7DD"/>
</svg>
