<svg width="28" height="28" viewBox="0 0 28 28" fill="none" xmlns="http://www.w3.org/2000/svg">
<path d="M14.1444 2C15.4544 2 15.7174 2.1364 16.6308 2.28878C17.8261 2.48813 18.8732 2.99675 19.838 3.47989C21.2059 4.16488 22.3822 5.29603 23.3336 6.43917C24.4066 7.7287 25.1754 9.23307 25.6398 11.0947C25.8808 12.06 26 12.7944 26 14.018C26 15.6293 25.7027 16.6845 25.3515 17.9156C24.5827 20.6105 22.7439 22.5551 20.703 24.015C19.7427 24.702 18.6846 25.1217 17.4599 25.5309C16.2756 25.9261 15.7179 26 14.0003 26C11.3997 26 9.94945 25.4514 8.23434 24.5926C8.01833 24.4841 7.65765 24.1954 7.36931 24.015C5.2127 22.665 3.52204 20.5766 2.64853 17.952C2.25542 16.7714 2 15.8601 2 14.2348C2 13.1002 2.02893 12.6835 2.18009 11.9251C2.82463 8.69898 4.30826 6.44367 6.43243 4.671C7.99289 3.36897 9.9245 2.46465 12.4144 2.10842C12.6668 2.07245 12.9187 2.03597 12.991 2.03597C13.0634 2.03597 13.5677 2 14.1444 2ZM14.1444 5.03173H13.3876C12.3375 5.03173 11.4181 5.41244 10.6129 5.68124C9.74591 5.97052 8.99262 6.49563 8.3426 7.01674C8.16251 7.16113 7.83824 7.41394 7.62173 7.63028C6.58658 8.667 5.86722 9.94204 5.35139 11.4919C5.08549 12.2908 5.02713 12.9288 5.02713 14.018C5.02713 16.5556 5.88069 18.043 6.90087 19.5758C7.26504 20.1229 8.01933 20.7439 8.52269 21.1636C9.84119 22.2643 11.5733 23.0042 13.9638 23.0042C15.7463 23.0042 16.7266 22.633 17.9637 22.1019C18.6093 21.8251 18.964 21.5918 19.4773 21.1636C19.6933 20.9833 20.1258 20.6585 20.3783 20.4057C20.6307 20.1529 20.955 19.7562 21.0991 19.5393C21.579 18.8184 22.1657 18.031 22.4685 17.1212C22.8003 16.1249 22.9729 15.3785 22.9729 14.0175C22.9729 11.8936 22.4466 10.3562 21.5316 9.0732C20.9599 8.2718 20.4182 7.49938 19.5856 6.94379C18.8672 6.46415 18.2252 5.94854 17.3152 5.64477C16.3265 5.31451 15.5148 5.03123 14.1439 5.03123L14.1444 5.03173Z" fill="#2E2E2E"/>
<circle cx="14" cy="14" r="13.5" stroke="#2E2E2E"/>
<path d="M5.56164 3.45205C4.9589 2.84932 4.05479 2.84932 3.45205 3.45205C2.84932 4.05479 2.84932 4.9589 3.45205 5.56164C15.7503 17.8599 10.8126 12.9222 22.4384 24.5479C23.0411 25.1507 23.9452 25.1507 24.5479 24.5479C25.1507 23.9452 25.1507 23.0411 24.5479 22.4384C16.0277 13.9181 14.4349 12.3253 5.56164 3.45205Z" fill="#2E2E2E"/>
</svg>
