<svg width="35" height="33" viewBox="0 0 35 33" fill="none" xmlns="http://www.w3.org/2000/svg">
<path d="M21.2679 1.07021C21.9675 1.74024 22.3565 2.66397 22.3565 3.62789V29.3697C22.3565 31.375 20.706 33 18.6722 33C17.6916 33 16.7534 32.6171 16.0766 31.9274L9.38046 25.3294C9.0036 24.958 8.49246 24.7494 7.95949 24.7494H5.35885C2.40072 24.7616 0 22.3979 0 19.469V13.5286C0 10.6269 2.40072 8.26324 5.35885 8.24822H7.92097C8.45195 8.24822 8.96135 8.04115 9.33788 7.67225L16.0766 1.07021C17.5009 -0.356157 19.835 -0.357313 21.2679 1.07021ZM30.443 6.5564C33.3099 9.0449 35 12.7537 35 16.7463C35 20.7389 33.3099 24.4478 30.443 26.9363C29.8878 27.4182 29.0413 27.3654 28.5521 26.8183C28.0631 26.2713 28.1166 25.4371 28.6719 24.9552C30.9596 22.9693 32.3206 19.9828 32.3206 16.7463C32.3206 13.5098 30.9596 10.5233 28.6719 8.53749C28.1166 8.05557 28.0631 7.22139 28.5521 6.67434C29.0413 6.12724 29.8878 6.07444 30.443 6.55635V6.5564ZM26.4445 10.409C28.1703 11.963 29.1806 14.2503 29.1806 16.704C29.1806 19.1591 28.1691 21.4476 26.4415 23.0016C25.8951 23.4931 25.0477 23.4551 24.5489 22.9167C24.055 22.3836 24.0879 21.56 24.6188 21.0666L24.635 21.0517L24.6699 21.0201C25.817 19.9694 26.5012 18.4044 26.5012 16.704C26.5012 14.9873 25.8039 13.4087 24.6369 12.3579C24.0908 11.8661 24.0526 11.0311 24.5517 10.4929C25.0509 9.95473 25.8983 9.91715 26.4445 10.409V10.409Z" fill="#D1D7DD"/>
</svg>
