<svg width="30" height="30" viewBox="0 0 30 30" fill="none" xmlns="http://www.w3.org/2000/svg">
<path d="M30 13.125C30 13.6875 29.8125 14.0625 29.4375 14.4375L25.6875 18.1875C25.3125 18.5625 24.9375 18.75 24.375 18.75C23.25 18.75 22.5 18 22.5 16.875C22.5 16.3125 22.6875 15.9375 23.0625 15.5625L23.625 15H18.75C17.625 15 16.875 14.25 16.875 13.125C16.875 12 17.625 11.25 18.75 11.25H23.625L23.0625 10.6875C22.6875 10.3125 22.5 9.9375 22.5 9.375C22.5 8.25 23.25 7.5 24.375 7.5C24.9375 7.5 25.3125 7.6875 25.6875 8.0625L29.4375 11.8125C29.8125 12.1875 30 12.5625 30 13.125ZM24.375 3.75H20.625H16.875H8.625L12.1875 5.8125C12.75 6.1875 13.125 6.75 13.125 7.5V22.5H15H20.625H24.375C25.5 22.5 26.25 23.25 26.25 24.375C26.25 25.5 25.5 26.25 24.375 26.25H15H13.125V28.125C13.125 29.25 12.375 30 11.25 30C10.875 30 10.5 29.8125 10.3125 29.625L0.9375 24C0.75 23.8125 0.5625 23.625 0.375 23.4375C0.375 23.4375 0.375 23.4375 0.375 23.25C0.1875 23.0625 0 22.875 0 22.5V1.875C0 1.125 0.5625 0.375 1.125 0.1875C1.3125 0 1.6875 0 1.875 0H16.875H24.375C25.5 0 26.25 0.75 26.25 1.875C26.25 3 25.5 3.75 24.375 3.75Z" fill="#D1D7DD"/>
</svg>
