<svg width="28" height="28" viewBox="0 0 28 28" fill="none" xmlns="http://www.w3.org/2000/svg">
<path d="M14.1445 2.09766C15.4436 2.09766 15.6936 2.23113 16.6143 2.38477C17.7932 2.58139 18.8286 3.08396 19.7939 3.56738C21.1447 4.24378 22.3114 5.36362 23.2588 6.50195C24.3217 7.77944 25.0839 9.27024 25.5449 11.1182C25.7842 12.0767 25.9023 12.8032 25.9023 14.0176C25.9023 15.6144 25.6086 16.659 25.2578 17.8887C24.4974 20.5545 22.6773 22.4828 20.6465 23.9355C19.6985 24.6137 18.6513 25.03 17.4287 25.4385C16.8397 25.635 16.4106 25.7497 15.917 25.8164C15.4218 25.8833 14.8583 25.9023 14 25.9023C11.4188 25.9023 9.98394 25.359 8.27832 24.5049C8.17823 24.4546 8.04042 24.3603 7.88574 24.251C7.73414 24.1438 7.56807 24.0247 7.4209 23.9326C5.28352 22.5947 3.60756 20.5239 2.74121 17.9209C2.34999 16.7459 2.09766 15.8452 2.09766 14.2344C2.09766 13.1034 2.12605 12.6937 2.27539 11.9443C2.91539 8.74098 4.38736 6.50506 6.49512 4.74609C8.04096 3.45626 9.95526 2.5589 12.4277 2.20508C12.5542 2.18705 12.6803 2.1688 12.7832 2.15527C12.8891 2.14135 12.9629 2.13379 12.9912 2.13379C13.0303 2.13376 13.1808 2.124 13.3828 2.11523C13.5892 2.10628 13.8581 2.09766 14.1445 2.09766ZM13.3877 4.93359C12.5851 4.93359 11.8563 5.15255 11.2061 5.37402L10.582 5.58887C9.69845 5.88369 8.93402 6.41712 8.28125 6.94043C8.10362 7.08285 7.77401 7.34042 7.55273 7.56152C6.50463 8.61124 5.77824 9.90027 5.25879 11.4609C4.98815 12.2741 4.9297 12.9241 4.92969 14.0176C4.92969 16.5834 5.79494 18.0907 6.81934 19.6299C7.19318 20.1915 7.96132 20.8225 8.45996 21.2383C9.79629 22.3538 11.5508 23.1016 13.9639 23.1016C15.7651 23.1016 16.7592 22.7249 18.002 22.1914C18.6573 21.9104 19.0205 21.6716 19.54 21.2383C19.7487 21.0641 20.191 20.7313 20.4473 20.4746C20.7037 20.2178 21.0325 19.8166 21.1807 19.5938C21.6562 18.8794 22.2534 18.0779 22.5615 17.1523C22.896 16.1479 23.0703 15.3907 23.0703 14.0176C23.0703 11.8755 22.5391 10.3178 21.6113 9.0166C21.0416 8.21799 20.4897 7.42953 19.6396 6.8623C18.9295 6.3881 18.2716 5.86087 17.3457 5.55176C16.3563 5.22128 15.5318 4.93368 14.1445 4.93359H13.3877Z" fill="white" stroke="white" stroke-width="0.195312"/>
<circle cx="14" cy="14" r="13.5" stroke="white"/>
</svg>
