<svg width="34" height="38" viewBox="0 0 34 38" fill="none" xmlns="http://www.w3.org/2000/svg">
<path d="M24.4054 33.9368L22.7364 33.3027L28.9191 17.7657C29.1846 17.0756 28.8432 16.2922 28.1415 16.0311C28.1225 16.0125 28.0846 16.0125 28.0657 16.0125L17.2555 12.5432C16.5537 12.3194 15.8141 12.6738 15.5486 13.3453L10.1624 27.3528L7.62109 26.4015L15.1882 6.72387C15.4348 6.05241 16.1744 5.71668 16.8761 5.92185L33.0346 10.8273C33.7552 11.0511 34.1535 11.7972 33.9449 12.5059C33.9259 12.5432 33.9259 12.5619 33.907 12.5992L25.6381 33.3959C25.4484 33.8809 24.8985 34.1234 24.4054 33.9368Z" fill="#D1D7DD"/>
<path d="M0 26.3365C0.0558689 29.235 2.47685 31.5242 5.38204 31.4688C8.21273 31.4135 10.5034 29.1427 10.5592 26.3365C10.6151 23.4379 8.30584 21.0564 5.38204 21.001C2.45823 20.9456 0.0558689 23.2349 0 26.1334V26.3365ZM15.2336 32.1889C15.2336 35.0874 17.5987 37.432 20.5225 37.4136C23.4463 37.4136 25.8114 35.0689 25.7928 32.1704C25.7742 29.2719 23.4277 26.9272 20.5039 26.9457C17.5987 26.9457 15.2336 29.2904 15.2336 32.1889Z" fill="#D1D7DD"/>
<path d="M5.62169 14.0689L1.26604 3.1658C0.998584 2.49865 1.32335 1.7362 1.99198 1.46934C2.03019 1.45028 2.06839 1.45028 2.0875 1.43122L6.61508 0.0588084C7.2073 -0.131805 7.85683 0.154115 8.12428 0.725954L8.67829 1.92682C8.96484 2.55584 8.69739 3.29923 8.06697 3.58515C8.02876 3.60421 7.97145 3.62327 7.93324 3.64233L4.83844 4.67164C4.55188 4.76695 4.41815 5.05287 4.49457 5.33879C4.49457 5.35785 4.49457 5.35785 4.51367 5.37691L7.45565 12.868C7.55117 13.0967 7.43654 13.3445 7.2264 13.4398L5.62169 14.0689Z" fill="#D1D7DD"/>
<path d="M0.586426 14.0688C0.586426 16.0165 2.15594 17.586 4.10364 17.586C6.05135 17.586 7.62086 16.0165 7.62086 14.0688C7.62086 12.1211 6.05135 10.5516 4.10364 10.5516C2.15594 10.5516 0.586426 12.1211 0.586426 14.0688Z" fill="#D1D7DD"/>
</svg>
