<svg width="36" height="36" viewBox="0 0 36 36" fill="none" xmlns="http://www.w3.org/2000/svg">
<path d="M13.568 7.78381H8.83006C8.55255 7.78381 8.2864 7.89485 8.09017 8.0925C7.89393 8.29015 7.78369 8.55823 7.78369 8.83775V13.3792C7.78369 13.6587 7.89393 13.9267 8.09017 14.1244C8.2864 14.322 8.55255 14.4331 8.83006 14.4331C9.10757 14.4331 9.37372 14.322 9.56995 14.1244C9.76619 13.9267 9.87643 13.6587 9.87643 13.3792V9.89168H13.568C13.8455 9.89168 14.1117 9.78064 14.3079 9.58299C14.5041 9.38534 14.6144 9.11727 14.6144 8.83775C14.6144 8.55823 14.5041 8.29015 14.3079 8.0925C14.1117 7.89485 13.8455 7.78381 13.568 7.78381ZM27.1698 7.78381H22.4328C22.1553 7.78381 21.8892 7.89485 21.693 8.0925C21.4967 8.29015 21.3865 8.55823 21.3865 8.83775C21.3865 9.11727 21.4967 9.38534 21.693 9.58299C21.8892 9.78064 22.1553 9.89168 22.4328 9.89168H26.1234V13.3792C26.1234 13.6587 26.2336 13.9267 26.4299 14.1244C26.6261 14.322 26.8922 14.4331 27.1698 14.4331C27.4473 14.4331 27.7134 14.322 27.9096 14.1244C28.1059 13.9267 28.2161 13.6587 28.2161 13.3792V8.83775C28.2161 8.55823 28.1059 8.29015 27.9096 8.0925C27.7134 7.89485 27.4473 7.78381 27.1698 7.78381ZM13.568 27.0814H9.87643V23.5928C9.87643 23.3133 9.76619 23.0452 9.56995 22.8476C9.37372 22.6499 9.10757 22.5389 8.83006 22.5389C8.55255 22.5389 8.2864 22.6499 8.09017 22.8476C7.89393 23.0452 7.78369 23.3133 7.78369 23.5928V28.1353C7.78369 28.4148 7.89393 28.6829 8.09017 28.8805C8.2864 29.0782 8.55255 29.1892 8.83006 29.1892H13.568C13.8455 29.1892 14.1117 29.0782 14.3079 28.8805C14.5041 28.6829 14.6144 28.4148 14.6144 28.1353C14.6144 27.8558 14.5041 27.5877 14.3079 27.39C14.1117 27.1924 13.8455 27.0814 13.568 27.0814ZM27.1698 22.5389C26.8922 22.5389 26.6261 22.6499 26.4299 22.8476C26.2336 23.0452 26.1234 23.3133 26.1234 23.5928V27.0814H22.4328C22.1553 27.0814 21.8892 27.1924 21.693 27.39C21.4967 27.5877 21.3865 27.8558 21.3865 28.1353C21.3865 28.4148 21.4967 28.6829 21.693 28.8805C21.8892 29.0782 22.1553 29.1892 22.4328 29.1892H27.1698C27.4473 29.1892 27.7134 29.0782 27.9096 28.8805C28.1059 28.6829 28.2161 28.4148 28.2161 28.1353V23.5928C28.2161 23.3133 28.1059 23.0452 27.9096 22.8476C27.7134 22.6499 27.4473 22.5389 27.1698 22.5389Z" fill="#D1D7DD"/>
<path d="M33.5172 0H2.48276C1.11352 0 0 1.11352 0 2.48276V33.5172C0 34.8865 1.11352 36 2.48276 36H33.5172C34.8865 36 36 34.8865 36 33.5172V2.48276C36 1.11352 34.8865 0 33.5172 0ZM2.48276 33.5172V2.48276H33.5172L33.5197 33.5172H2.48276Z" fill="#D1D7DD"/>
</svg>
