<svg width="31" height="37" viewBox="0 0 31 37" fill="none" xmlns="http://www.w3.org/2000/svg">
<path d="M21.4932 7.67455C22.2261 7.67455 22.8085 8.257 22.8301 8.98998V35.3982C22.8301 36.1312 22.2261 36.7136 21.5146 36.7136H1.31543C0.582455 36.7136 0 36.1096 0 35.3982V8.98998C4.04214e-08 8.257 0.604013 7.67455 1.31543 7.67455H21.4932ZM8.51562 1.07787C8.645 0.366535 9.31307 -0.108034 10.0244 0.0212264L29.9229 3.53587C30.6341 3.64381 31.1078 4.33334 30.9785 5.04466L26.3867 31.0437C26.3005 31.5826 25.8913 31.9925 25.3955 32.1003V5.51927C25.3955 5.28213 25.201 5.08763 24.9639 5.08763H14.8105L14.8535 4.80736C14.8966 4.57033 14.7243 4.333 14.4873 4.28978L11.9648 3.83763C11.7277 3.79452 11.4904 3.9667 11.4473 4.20384L11.2969 5.08763H7.80371L8.51562 1.07787ZM7.37305 20.2429C6.3383 21.1699 5.9721 22.7003 6.44629 24.0369C6.92053 25.3949 8.12724 26.3003 9.50684 26.322C9.98111 26.322 10.4341 26.2143 10.8652 26.0202L9.67969 28.3923H13.1289L11.9434 26.0202C12.3745 26.2143 12.8275 26.322 13.3018 26.322C14.6813 26.2787 15.8881 25.3733 16.3623 24.0369C16.8365 22.7003 16.4703 21.1914 15.4355 20.2429L11.4043 15.9958L7.37305 20.2429Z" fill="#D1D7DD"/>
</svg>
