<?xml version="1.0" standalone="no"?><!DOCTYPE svg PUBLIC "-//W3C//DTD SVG 1.1//EN" "http://www.w3.org/Graphics/SVG/1.1/DTD/svg11.dtd"><svg t="1773981906447" class="icon" viewBox="0 0 1024 1024" version="1.1" xmlns="http://www.w3.org/2000/svg" p-id="9993" xmlns:xlink="http://www.w3.org/1999/xlink" width="200" height="200"><path d="M127.488 350.6688l15.5648-4.6592-15.5648-4.6592a9.4208 9.4208 0 0 1-6.2464-6.2464l-4.6592-15.5648-4.6592 15.5648a9.4208 9.4208 0 0 1-6.2464 6.2464l-15.5648 4.6592 15.5648 4.6592c2.9696 0.9216 5.3248 3.2256 6.2464 6.2464l4.6592 15.5648 4.6592-15.5648c0.8704-3.0208 3.2256-5.376 6.2464-6.2464zM127.488 459.9808l15.5648-4.6592-15.5648-4.6592a9.4208 9.4208 0 0 1-6.2464-6.2464l-4.6592-15.5648-4.6592 15.5648a9.4208 9.4208 0 0 1-6.2464 6.2464l-15.5648 4.6592 15.5648 4.6592c2.9696 0.9216 5.3248 3.2256 6.2464 6.2464l4.6592 15.5648 4.6592-15.5648c0.8704-2.9696 3.2256-5.3248 6.2464-6.2464zM127.488 569.344l15.5648-4.6592-15.5648-4.6592a9.4208 9.4208 0 0 1-6.2464-6.2464l-4.6592-15.5648-4.6592 15.5648a9.4208 9.4208 0 0 1-6.2464 6.2464l-15.5648 4.6592 15.5648 4.6592c2.9696 0.9216 5.3248 3.2256 6.2464 6.2464l4.6592 15.5648 4.6592-15.5648c0.8704-3.0208 3.2256-5.376 6.2464-6.2464zM127.488 678.656l15.5648-4.6592-15.5648-4.6592a9.4208 9.4208 0 0 1-6.2464-6.2464l-4.6592-15.5648-4.6592 15.5648a9.4208 9.4208 0 0 1-6.2464 6.2464l-15.5648 4.6592 15.5648 4.6592c2.9696 0.9216 5.3248 3.2256 6.2464 6.2464l4.6592 15.5648 4.6592-15.5648a9.216 9.216 0 0 1 6.2464-6.2464zM326.4512 350.6688l15.5648-4.6592-15.5648-4.6592a9.4208 9.4208 0 0 1-6.2464-6.2464l-4.6592-15.5648-4.6592 15.5648a9.4208 9.4208 0 0 1-6.2464 6.2464l-15.5648 4.6592 15.5648 4.6592c2.9696 0.9216 5.3248 3.2256 6.2464 6.2464l4.6592 15.5648 4.6592-15.5648a9.216 9.216 0 0 1 6.2464-6.2464zM326.4512 459.9808l15.5648-4.6592-15.5648-4.6592a9.4208 9.4208 0 0 1-6.2464-6.2464l-4.6592-15.5648-4.6592 15.5648a9.4208 9.4208 0 0 1-6.2464 6.2464l-15.5648 4.6592 15.5648 4.6592c2.9696 0.9216 5.3248 3.2256 6.2464 6.2464l4.6592 15.5648 4.6592-15.5648c0.9216-2.9696 3.2256-5.3248 6.2464-6.2464zM326.4512 569.344l15.5648-4.6592-15.5648-4.6592a9.4208 9.4208 0 0 1-6.2464-6.2464l-4.6592-15.5648-4.6592 15.5648a9.4208 9.4208 0 0 1-6.2464 6.2464l-15.5648 4.6592 15.5648 4.6592c2.9696 0.9216 5.3248 3.2256 6.2464 6.2464l4.6592 15.5648 4.6592-15.5648a9.216 9.216 0 0 1 6.2464-6.2464zM326.4512 678.656l15.5648-4.6592-15.5648-4.6592a9.4208 9.4208 0 0 1-6.2464-6.2464l-4.6592-15.5648-4.6592 15.5648a9.4208 9.4208 0 0 1-6.2464 6.2464l-15.5648 4.6592 15.5648 4.6592c2.9696 0.9216 5.3248 3.2256 6.2464 6.2464l4.6592 15.5648 4.6592-15.5648c0.9216-3.0208 3.2256-5.3248 6.2464-6.2464z" fill="#666666" p-id="9994"></path><path d="M525.4144 350.6688l15.5648-4.6592-15.5648-4.6592a9.4208 9.4208 0 0 1-6.2464-6.2464l-4.6592-15.5648-4.6592 15.5648a9.4208 9.4208 0 0 1-6.2464 6.2464l-15.5648 4.6592 15.5648 4.6592c2.9696 0.9216 5.3248 3.2256 6.2464 6.2464l4.6592 15.5648 4.6592-15.5648c0.9216-3.0208 3.2768-5.376 6.2464-6.2464zM525.4144 459.9808l15.5648-4.6592-15.5648-4.6592a9.4208 9.4208 0 0 1-6.2464-6.2464l-4.6592-15.5648-4.6592 15.5648a9.4208 9.4208 0 0 1-6.2464 6.2464l-15.5648 4.6592 15.5648 4.6592c2.9696 0.9216 5.3248 3.2256 6.2464 6.2464l4.6592 15.5648 4.6592-15.5648c0.9216-2.9696 3.2768-5.3248 6.2464-6.2464zM525.4144 569.344l15.5648-4.6592-15.5648-4.6592a9.4208 9.4208 0 0 1-6.2464-6.2464l-4.6592-15.5648-4.6592 15.5648a9.4208 9.4208 0 0 1-6.2464 6.2464l-15.5648 4.6592 15.5648 4.6592c2.9696 0.9216 5.3248 3.2256 6.2464 6.2464l4.6592 15.5648 4.6592-15.5648c0.9216-3.0208 3.2768-5.376 6.2464-6.2464zM525.4144 678.656l15.5648-4.6592-15.5648-4.6592a9.4208 9.4208 0 0 1-6.2464-6.2464l-4.6592-15.5648-4.6592 15.5648a9.4208 9.4208 0 0 1-6.2464 6.2464l-15.5648 4.6592 15.5648 4.6592c2.9696 0.9216 5.3248 3.2256 6.2464 6.2464l4.6592 15.5648 4.6592-15.5648c0.9216-3.0208 3.2768-5.3248 6.2464-6.2464z" fill="#666666" p-id="9995"></path><path d="M724.4288 350.6688l15.5648-4.6592-15.5648-4.6592a9.4208 9.4208 0 0 1-6.2464-6.2464l-4.6592-15.5648-4.6592 15.5648a9.4208 9.4208 0 0 1-6.2464 6.2464l-15.5648 4.6592 15.5648 4.6592c2.9696 0.9216 5.3248 3.2256 6.2464 6.2464l4.6592 15.5648 4.6592-15.5648a9.216 9.216 0 0 1 6.2464-6.2464zM724.4288 459.9808l15.5648-4.6592-15.5648-4.6592a9.4208 9.4208 0 0 1-6.2464-6.2464l-4.6592-15.5648-4.6592 15.5648a9.4208 9.4208 0 0 1-6.2464 6.2464l-15.5648 4.6592 15.5648 4.6592c2.9696 0.9216 5.3248 3.2256 6.2464 6.2464l4.6592 15.5648 4.6592-15.5648c0.9216-2.9696 3.2256-5.3248 6.2464-6.2464zM724.4288 569.344l15.5648-4.6592-15.5648-4.6592a9.4208 9.4208 0 0 1-6.2464-6.2464l-4.6592-15.5648-4.6592 15.5648a9.4208 9.4208 0 0 1-6.2464 6.2464l-15.5648 4.6592 15.5648 4.6592c2.9696 0.9216 5.3248 3.2256 6.2464 6.2464l4.6592 15.5648 4.6592-15.5648a9.216 9.216 0 0 1 6.2464-6.2464zM724.4288 678.656l15.5648-4.6592-15.5648-4.6592a9.4208 9.4208 0 0 1-6.2464-6.2464l-4.6592-15.5648-4.6592 15.5648a9.4208 9.4208 0 0 1-6.2464 6.2464l-15.5648 4.6592 15.5648 4.6592c2.9696 0.9216 5.3248 3.2256 6.2464 6.2464l4.6592 15.5648 4.6592-15.5648c0.9216-3.0208 3.2256-5.3248 6.2464-6.2464z" fill="#666666" p-id="9996"></path><path d="M923.392 350.6688l15.5648-4.6592-15.5648-4.6592a9.4208 9.4208 0 0 1-6.2464-6.2464l-4.6592-15.5648-4.6592 15.5648a9.4208 9.4208 0 0 1-6.2464 6.2464l-15.5648 4.6592 15.5648 4.6592c2.9696 0.9216 5.3248 3.2256 6.2464 6.2464l4.6592 15.5648 4.6592-15.5648c0.9216-3.0208 3.2768-5.376 6.2464-6.2464zM923.392 459.9808l15.5648-4.6592-15.5648-4.6592a9.4208 9.4208 0 0 1-6.2464-6.2464l-4.6592-15.5648-4.6592 15.5648a9.4208 9.4208 0 0 1-6.2464 6.2464l-15.5648 4.6592 15.5648 4.6592c2.9696 0.9216 5.3248 3.2256 6.2464 6.2464l4.6592 15.5648 4.6592-15.5648c0.9216-2.9696 3.2768-5.3248 6.2464-6.2464zM923.392 569.344l15.5648-4.6592-15.5648-4.6592a9.4208 9.4208 0 0 1-6.2464-6.2464l-4.6592-15.5648-4.6592 15.5648a9.4208 9.4208 0 0 1-6.2464 6.2464l-15.5648 4.6592 15.5648 4.6592c2.9696 0.9216 5.3248 3.2256 6.2464 6.2464l4.6592 15.5648 4.6592-15.5648c0.9216-3.0208 3.2768-5.376 6.2464-6.2464zM923.392 678.656l15.5648-4.6592-15.5648-4.6592a9.4208 9.4208 0 0 1-6.2464-6.2464l-4.6592-15.5648-4.6592 15.5648a9.4208 9.4208 0 0 1-6.2464 6.2464l-15.5648 4.6592 15.5648 4.6592c2.9696 0.9216 5.3248 3.2256 6.2464 6.2464l4.6592 15.5648 4.6592-15.5648c0.9216-3.0208 3.2768-5.3248 6.2464-6.2464z" fill="#666666" p-id="9997"></path><path d="M32.9216 297.8816l11.008-3.328-11.008-3.328a6.5536 6.5536 0 0 1-4.4032-4.4032l-3.328-11.008-3.328 11.008c-0.6144 2.0992-2.304 3.7888-4.4032 4.4032l-11.008 3.328 11.008 3.328c2.0992 0.6144 3.7888 2.304 4.4032 4.4032l3.328 11.008 3.328-11.008c0.6656-2.0992 2.304-3.7888 4.4032-4.4032zM32.9216 411.3408l11.008-3.328-11.008-3.328a6.5536 6.5536 0 0 1-4.4032-4.4032l-3.328-11.008-3.328 11.008c-0.6144 2.0992-2.304 3.7888-4.4032 4.4032l-11.008 3.328 11.008 3.328c2.0992 0.6144 3.7888 2.304 4.4032 4.4032l3.328 11.008 3.328-11.008c0.6656-2.0992 2.304-3.7888 4.4032-4.4032zM32.9216 513.3824l11.008-3.328-11.008-3.328a6.5536 6.5536 0 0 1-4.4032-4.4032l-3.328-11.008-3.328 11.008c-0.6144 2.0992-2.304 3.7888-4.4032 4.4032l-11.008 3.328 11.008 3.328c2.0992 0.6144 3.7888 2.304 4.4032 4.4032l3.328 11.008 3.328-11.008c0.6656-2.0992 2.304-3.7376 4.4032-4.4032zM32.9216 617.8816l11.008-3.328-11.008-3.328a6.5536 6.5536 0 0 1-4.4032-4.4032l-3.328-11.008-3.328 11.008c-0.6144 2.0992-2.304 3.7888-4.4032 4.4032l-11.008 3.328 11.008 3.328c2.0992 0.6144 3.7888 2.304 4.4032 4.4032l3.328 11.008 3.328-11.008c0.6656-2.0992 2.304-3.7888 4.4032-4.4032zM32.9216 728.7296l11.008-3.328-11.008-3.328a6.5536 6.5536 0 0 1-4.4032-4.4032l-3.328-11.008-3.328 11.008c-0.6144 2.0992-2.304 3.7888-4.4032 4.4032l-11.008 3.328 11.008 3.328c2.0992 0.6144 3.7888 2.304 4.4032 4.4032l3.328 11.008 3.328-11.008c0.6656-2.1504 2.304-3.7888 4.4032-4.4032zM228.6592 297.8816l11.008-3.328-11.008-3.328a6.5536 6.5536 0 0 1-4.4032-4.4032l-3.328-11.008-3.328 11.008c-0.6144 2.0992-2.304 3.7888-4.4032 4.4032l-11.008 3.328 11.008 3.328c2.0992 0.6144 3.7888 2.304 4.4032 4.4032l3.328 11.008 3.328-11.008c0.6144-2.0992 2.304-3.7888 4.4032-4.4032zM228.6592 411.3408l11.008-3.328-11.008-3.328a6.5536 6.5536 0 0 1-4.4032-4.4032l-3.328-11.008-3.328 11.008c-0.6144 2.0992-2.304 3.7888-4.4032 4.4032l-11.008 3.328 11.008 3.328c2.0992 0.6144 3.7888 2.304 4.4032 4.4032l3.328 11.008 3.328-11.008c0.6144-2.0992 2.304-3.7888 4.4032-4.4032zM228.6592 513.3824l11.008-3.328-11.008-3.328a6.5536 6.5536 0 0 1-4.4032-4.4032l-3.328-11.008-3.328 11.008c-0.6144 2.0992-2.304 3.7888-4.4032 4.4032l-11.008 3.328 11.008 3.328c2.0992 0.6144 3.7888 2.304 4.4032 4.4032l3.328 11.008 3.328-11.008c0.6144-2.0992 2.304-3.7376 4.4032-4.4032zM228.6592 617.8816l11.008-3.328-11.008-3.328a6.5536 6.5536 0 0 1-4.4032-4.4032l-3.328-11.008-3.328 11.008c-0.6144 2.0992-2.304 3.7888-4.4032 4.4032l-11.008 3.328 11.008 3.328c2.0992 0.6144 3.7888 2.304 4.4032 4.4032l3.328 11.008 3.328-11.008c0.6144-2.0992 2.304-3.7888 4.4032-4.4032zM228.6592 728.7296l11.008-3.328-11.008-3.328a6.5536 6.5536 0 0 1-4.4032-4.4032l-3.328-11.008-3.328 11.008c-0.6144 2.0992-2.304 3.7888-4.4032 4.4032l-11.008 3.328 11.008 3.328c2.0992 0.6144 3.7888 2.304 4.4032 4.4032l3.328 11.008 3.328-11.008c0.6144-2.1504 2.304-3.7888 4.4032-4.4032z" fill="#666666" opacity=".5" p-id="9998"></path><path d="M424.3968 297.8816l11.008-3.328-11.008-3.328a6.5536 6.5536 0 0 1-4.4032-4.4032l-3.328-11.008-3.328 11.008c-0.6144 2.0992-2.304 3.7888-4.4032 4.4032l-11.008 3.328 11.008 3.328c2.0992 0.6144 3.7888 2.304 4.4032 4.4032l3.328 11.008 3.328-11.008c0.6144-2.0992 2.2528-3.7888 4.4032-4.4032zM424.3968 411.3408l11.008-3.328-11.008-3.328a6.5536 6.5536 0 0 1-4.4032-4.4032l-3.328-11.008-3.328 11.008c-0.6144 2.0992-2.304 3.7888-4.4032 4.4032l-11.008 3.328 11.008 3.328c2.0992 0.6144 3.7888 2.304 4.4032 4.4032l3.328 11.008 3.328-11.008c0.6144-2.0992 2.2528-3.7888 4.4032-4.4032zM424.3968 513.3824l11.008-3.328-11.008-3.328a6.5536 6.5536 0 0 1-4.4032-4.4032l-3.328-11.008-3.328 11.008c-0.6144 2.0992-2.304 3.7888-4.4032 4.4032l-11.008 3.328 11.008 3.328c2.0992 0.6144 3.7888 2.304 4.4032 4.4032l3.328 11.008 3.328-11.008c0.6144-2.0992 2.2528-3.7376 4.4032-4.4032zM424.3968 617.8816l11.008-3.328-11.008-3.328a6.5536 6.5536 0 0 1-4.4032-4.4032l-3.328-11.008-3.328 11.008c-0.6144 2.0992-2.304 3.7888-4.4032 4.4032l-11.008 3.328 11.008 3.328c2.0992 0.6144 3.7888 2.304 4.4032 4.4032l3.328 11.008 3.328-11.008c0.6144-2.0992 2.2528-3.7888 4.4032-4.4032zM424.3968 728.7296l11.008-3.328-11.008-3.328a6.5536 6.5536 0 0 1-4.4032-4.4032l-3.328-11.008-3.328 11.008c-0.6144 2.0992-2.304 3.7888-4.4032 4.4032l-11.008 3.328 11.008 3.328c2.0992 0.6144 3.7888 2.304 4.4032 4.4032l3.328 11.008 3.328-11.008c0.6144-2.1504 2.2528-3.7888 4.4032-4.4032z" fill="#666666" opacity=".5" p-id="9999"></path><path d="M620.0832 297.8816l11.008-3.328-11.008-3.328a6.5536 6.5536 0 0 1-4.4032-4.4032l-3.328-11.008-3.328 11.008c-0.6144 2.0992-2.304 3.7888-4.4032 4.4032l-11.008 3.328 11.008 3.328c2.0992 0.6144 3.7888 2.304 4.4032 4.4032l3.328 11.008 3.328-11.008c0.6656-2.0992 2.304-3.7888 4.4032-4.4032zM620.0832 411.3408l11.008-3.328-11.008-3.328a6.5536 6.5536 0 0 1-4.4032-4.4032l-3.328-11.008-3.328 11.008c-0.6144 2.0992-2.304 3.7888-4.4032 4.4032l-11.008 3.328 11.008 3.328c2.0992 0.6144 3.7888 2.304 4.4032 4.4032l3.328 11.008 3.328-11.008c0.6656-2.0992 2.304-3.7888 4.4032-4.4032zM620.0832 513.3824l11.008-3.328-11.008-3.328a6.5536 6.5536 0 0 1-4.4032-4.4032l-3.328-11.008-3.328 11.008c-0.6144 2.0992-2.304 3.7888-4.4032 4.4032l-11.008 3.328 11.008 3.328c2.0992 0.6144 3.7888 2.304 4.4032 4.4032l3.328 11.008 3.328-11.008c0.6656-2.0992 2.304-3.7376 4.4032-4.4032zM620.0832 617.8816l11.008-3.328-11.008-3.328a6.5536 6.5536 0 0 1-4.4032-4.4032l-3.328-11.008-3.328 11.008c-0.6144 2.0992-2.304 3.7888-4.4032 4.4032l-11.008 3.328 11.008 3.328c2.0992 0.6144 3.7888 2.304 4.4032 4.4032l3.328 11.008 3.328-11.008c0.6656-2.0992 2.304-3.7888 4.4032-4.4032zM620.0832 728.7296l11.008-3.328-11.008-3.328a6.5536 6.5536 0 0 1-4.4032-4.4032l-3.328-11.008-3.328 11.008c-0.6144 2.0992-2.304 3.7888-4.4032 4.4032l-11.008 3.328 11.008 3.328c2.0992 0.6144 3.7888 2.304 4.4032 4.4032l3.328 11.008 3.328-11.008c0.6656-2.1504 2.304-3.7888 4.4032-4.4032z" fill="#666666" opacity=".5" p-id="10000"></path><path d="M815.8208 297.8816l11.008-3.328-11.008-3.328a6.5536 6.5536 0 0 1-4.4032-4.4032l-3.328-11.008-3.328 11.008c-0.6144 2.0992-2.304 3.7888-4.4032 4.4032l-11.008 3.328 11.008 3.328c2.0992 0.6144 3.7888 2.304 4.4032 4.4032l3.328 11.008 3.328-11.008c0.6144-2.0992 2.304-3.7888 4.4032-4.4032zM815.8208 411.3408l11.008-3.328-11.008-3.328a6.5536 6.5536 0 0 1-4.4032-4.4032l-3.328-11.008-3.328 11.008c-0.6144 2.0992-2.304 3.7888-4.4032 4.4032l-11.008 3.328 11.008 3.328c2.0992 0.6144 3.7888 2.304 4.4032 4.4032l3.328 11.008 3.328-11.008c0.6144-2.0992 2.304-3.7888 4.4032-4.4032zM815.8208 513.3824l11.008-3.328-11.008-3.328a6.5536 6.5536 0 0 1-4.4032-4.4032l-3.328-11.008-3.328 11.008c-0.6144 2.0992-2.304 3.7888-4.4032 4.4032l-11.008 3.328 11.008 3.328c2.0992 0.6144 3.7888 2.304 4.4032 4.4032l3.328 11.008 3.328-11.008c0.6144-2.0992 2.304-3.7376 4.4032-4.4032zM815.8208 617.8816l11.008-3.328-11.008-3.328a6.5536 6.5536 0 0 1-4.4032-4.4032l-3.328-11.008-3.328 11.008c-0.6144 2.0992-2.304 3.7888-4.4032 4.4032l-11.008 3.328 11.008 3.328c2.0992 0.6144 3.7888 2.304 4.4032 4.4032l3.328 11.008 3.328-11.008c0.6144-2.0992 2.304-3.7888 4.4032-4.4032zM815.8208 728.7296l11.008-3.328-11.008-3.328a6.5536 6.5536 0 0 1-4.4032-4.4032l-3.328-11.008-3.328 11.008c-0.6144 2.0992-2.304 3.7888-4.4032 4.4032l-11.008 3.328 11.008 3.328c2.0992 0.6144 3.7888 2.304 4.4032 4.4032l3.328 11.008 3.328-11.008c0.6144-2.1504 2.304-3.7888 4.4032-4.4032z" fill="#666666" opacity=".5" p-id="10001"></path><path d="M1011.5584 297.8816l11.008-3.328-11.008-3.328a6.5536 6.5536 0 0 1-4.4032-4.4032l-3.328-11.008-3.328 11.008c-0.6144 2.0992-2.304 3.7888-4.4032 4.4032l-11.008 3.328 11.008 3.328c2.0992 0.6144 3.7888 2.304 4.4032 4.4032l3.328 11.008 3.328-11.008c0.6144-2.0992 2.2528-3.7888 4.4032-4.4032zM1011.5584 411.3408l11.008-3.328-11.008-3.328a6.5536 6.5536 0 0 1-4.4032-4.4032l-3.328-11.008-3.328 11.008c-0.6144 2.0992-2.304 3.7888-4.4032 4.4032l-11.008 3.328 11.008 3.328c2.0992 0.6144 3.7888 2.304 4.4032 4.4032l3.328 11.008 3.328-11.008c0.6144-2.0992 2.2528-3.7888 4.4032-4.4032zM1011.5584 513.3824l11.008-3.328-11.008-3.328a6.5536 6.5536 0 0 1-4.4032-4.4032l-3.328-11.008-3.328 11.008c-0.6144 2.0992-2.304 3.7888-4.4032 4.4032l-11.008 3.328 11.008 3.328c2.0992 0.6144 3.7888 2.304 4.4032 4.4032l3.328 11.008 3.328-11.008c0.6144-2.0992 2.2528-3.7376 4.4032-4.4032zM1011.5584 617.8816l11.008-3.328-11.008-3.328a6.5536 6.5536 0 0 1-4.4032-4.4032l-3.328-11.008-3.328 11.008c-0.6144 2.0992-2.304 3.7888-4.4032 4.4032l-11.008 3.328 11.008 3.328c2.0992 0.6144 3.7888 2.304 4.4032 4.4032l3.328 11.008 3.328-11.008c0.6144-2.0992 2.2528-3.7888 4.4032-4.4032zM1011.5584 728.7296l11.008-3.328-11.008-3.328a6.5536 6.5536 0 0 1-4.4032-4.4032l-3.328-11.008-3.328 11.008c-0.6144 2.0992-2.304 3.7888-4.4032 4.4032l-11.008 3.328 11.008 3.328c2.0992 0.6144 3.7888 2.304 4.4032 4.4032l3.328 11.008 3.328-11.008c0.6144-2.1504 2.2528-3.7888 4.4032-4.4032z" fill="#666666" opacity=".5" p-id="10002"></path></svg>